<mxfile host="app.diagrams.net" modified="2024-04-15T12:10:20.547Z" agent="Mozilla/5.0 (Macintosh; Intel Mac OS X 10_15_7) AppleWebKit/537.36 (KHTML, like Gecko) Chrome/121.0.0.0 Safari/537.36" etag="gLPWCXg0wp7Lgocn0Nfu" version="24.2.3" type="github">
  <diagram id="XOnag8xoFiaOOmy9v_93" name="Page-1">
    <mxGraphModel dx="1432" dy="795" grid="1" gridSize="10" guides="1" tooltips="1" connect="1" arrows="1" fold="1" page="1" pageScale="1" pageWidth="2336" pageHeight="1654" math="0" shadow="0">
      <root>
        <mxCell id="_vKOgibNYJb6RkX7hGH7-0" />
        <mxCell id="_vKOgibNYJb6RkX7hGH7-1" parent="_vKOgibNYJb6RkX7hGH7-0" />
        <mxCell id="BnMmAX0TkKGdTF5xidC1-106" style="edgeStyle=orthogonalEdgeStyle;rounded=0;orthogonalLoop=1;jettySize=auto;html=1;entryX=0;entryY=0.5;entryDx=0;entryDy=0;" edge="1" parent="_vKOgibNYJb6RkX7hGH7-1" source="BnMmAX0TkKGdTF5xidC1-0" target="BnMmAX0TkKGdTF5xidC1-81">
          <mxGeometry relative="1" as="geometry" />
        </mxCell>
        <mxCell id="BnMmAX0TkKGdTF5xidC1-109" style="edgeStyle=orthogonalEdgeStyle;rounded=0;orthogonalLoop=1;jettySize=auto;html=1;entryX=0;entryY=0.5;entryDx=0;entryDy=0;" edge="1" parent="_vKOgibNYJb6RkX7hGH7-1" source="BnMmAX0TkKGdTF5xidC1-0" target="BnMmAX0TkKGdTF5xidC1-82">
          <mxGeometry relative="1" as="geometry" />
        </mxCell>
        <mxCell id="BnMmAX0TkKGdTF5xidC1-0" value="IOT Device" style="shape=umlActor;verticalLabelPosition=bottom;verticalAlign=top;html=1;fontFamily=Helvetica;fontSize=12;align=center;strokeColor=#82b366;strokeWidth=1;fillColor=#d5e8d4;" vertex="1" parent="_vKOgibNYJb6RkX7hGH7-1">
          <mxGeometry x="690" y="610" width="30" height="60" as="geometry" />
        </mxCell>
        <mxCell id="BnMmAX0TkKGdTF5xidC1-34" style="edgeStyle=none;rounded=0;orthogonalLoop=1;jettySize=auto;html=1;exitX=0;exitY=1;exitDx=0;exitDy=-15;exitPerimeter=0;dashed=1;dashPattern=1 4;fontSize=12;fontColor=#000000;" edge="1" parent="_vKOgibNYJb6RkX7hGH7-1">
          <mxGeometry relative="1" as="geometry">
            <mxPoint x="1595" y="520" as="sourcePoint" />
            <mxPoint x="1595" y="520" as="targetPoint" />
          </mxGeometry>
        </mxCell>
        <mxCell id="BnMmAX0TkKGdTF5xidC1-105" style="edgeStyle=orthogonalEdgeStyle;rounded=0;orthogonalLoop=1;jettySize=auto;html=1;" edge="1" parent="_vKOgibNYJb6RkX7hGH7-1" source="BnMmAX0TkKGdTF5xidC1-35" target="BnMmAX0TkKGdTF5xidC1-104">
          <mxGeometry relative="1" as="geometry" />
        </mxCell>
        <mxCell id="BnMmAX0TkKGdTF5xidC1-35" value="User / Wallet" style="shape=umlActor;verticalLabelPosition=bottom;verticalAlign=top;html=1;outlineConnect=0;rounded=1;strokeWidth=1;fillColor=#dae8fc;strokeColor=#6c8ebf;" vertex="1" parent="_vKOgibNYJb6RkX7hGH7-1">
          <mxGeometry x="1205" y="380" width="30" height="60" as="geometry" />
        </mxCell>
        <mxCell id="BnMmAX0TkKGdTF5xidC1-99" style="edgeStyle=orthogonalEdgeStyle;rounded=0;orthogonalLoop=1;jettySize=auto;html=1;exitX=0.5;exitY=0.5;exitDx=0;exitDy=0;exitPerimeter=0;" edge="1" parent="_vKOgibNYJb6RkX7hGH7-1" source="BnMmAX0TkKGdTF5xidC1-56" target="BnMmAX0TkKGdTF5xidC1-85">
          <mxGeometry relative="1" as="geometry" />
        </mxCell>
        <mxCell id="BnMmAX0TkKGdTF5xidC1-101" style="edgeStyle=orthogonalEdgeStyle;rounded=0;orthogonalLoop=1;jettySize=auto;html=1;entryX=1;entryY=0.5;entryDx=0;entryDy=0;" edge="1" parent="_vKOgibNYJb6RkX7hGH7-1" source="BnMmAX0TkKGdTF5xidC1-56" target="BnMmAX0TkKGdTF5xidC1-87">
          <mxGeometry relative="1" as="geometry" />
        </mxCell>
        <mxCell id="BnMmAX0TkKGdTF5xidC1-56" value="Admin User&lt;div&gt;&lt;br&gt;&lt;/div&gt;" style="shape=umlActor;verticalLabelPosition=bottom;verticalAlign=top;html=1;outlineConnect=0;rounded=1;strokeWidth=1;fillColor=#f8cecc;strokeColor=#b85450;" vertex="1" parent="_vKOgibNYJb6RkX7hGH7-1">
          <mxGeometry x="1515" y="630" width="30" height="60" as="geometry" />
        </mxCell>
        <mxCell id="BnMmAX0TkKGdTF5xidC1-81" value="perform an Action&amp;nbsp;" style="ellipse;whiteSpace=wrap;html=1;rounded=1;strokeWidth=1;fontSize=12;fillColor=#d5e8d4;strokeColor=#82b366;" vertex="1" parent="_vKOgibNYJb6RkX7hGH7-1">
          <mxGeometry x="810" y="590" width="120" height="50" as="geometry" />
        </mxCell>
        <mxCell id="BnMmAX0TkKGdTF5xidC1-82" value="send confirmation" style="ellipse;whiteSpace=wrap;html=1;rounded=1;strokeWidth=1;fontSize=12;fillColor=#d5e8d4;strokeColor=#82b366;" vertex="1" parent="_vKOgibNYJb6RkX7hGH7-1">
          <mxGeometry x="810" y="680" width="120" height="50" as="geometry" />
        </mxCell>
        <mxCell id="BnMmAX0TkKGdTF5xidC1-83" value="verify confirmation" style="ellipse;whiteSpace=wrap;html=1;rounded=1;strokeWidth=1;fontSize=12;fillColor=#fff2cc;strokeColor=#d6b656;" vertex="1" parent="_vKOgibNYJb6RkX7hGH7-1">
          <mxGeometry x="970" y="730" width="120" height="50" as="geometry" />
        </mxCell>
        <mxCell id="BnMmAX0TkKGdTF5xidC1-85" value="Add new Iot device" style="ellipse;whiteSpace=wrap;html=1;fillColor=#f8cecc;strokeColor=#b85450;" vertex="1" parent="_vKOgibNYJb6RkX7hGH7-1">
          <mxGeometry x="1295" y="590" width="120" height="50" as="geometry" />
        </mxCell>
        <mxCell id="BnMmAX0TkKGdTF5xidC1-86" value="Set price for Action" style="ellipse;whiteSpace=wrap;html=1;fillColor=#f8cecc;strokeColor=#b85450;" vertex="1" parent="_vKOgibNYJb6RkX7hGH7-1">
          <mxGeometry x="1295" y="650" width="120" height="50" as="geometry" />
        </mxCell>
        <mxCell id="BnMmAX0TkKGdTF5xidC1-87" value="set Wallet for paying transaction" style="ellipse;whiteSpace=wrap;html=1;fillColor=#f8cecc;strokeColor=#b85450;" vertex="1" parent="_vKOgibNYJb6RkX7hGH7-1">
          <mxGeometry x="1295" y="710" width="120" height="50" as="geometry" />
        </mxCell>
        <mxCell id="BnMmAX0TkKGdTF5xidC1-103" style="edgeStyle=orthogonalEdgeStyle;rounded=0;orthogonalLoop=1;jettySize=auto;html=1;exitX=0.5;exitY=0.5;exitDx=0;exitDy=0;exitPerimeter=0;entryX=0.5;entryY=1;entryDx=0;entryDy=0;" edge="1" parent="_vKOgibNYJb6RkX7hGH7-1" source="BnMmAX0TkKGdTF5xidC1-89" target="BnMmAX0TkKGdTF5xidC1-83">
          <mxGeometry relative="1" as="geometry" />
        </mxCell>
        <mxCell id="BnMmAX0TkKGdTF5xidC1-110" style="edgeStyle=orthogonalEdgeStyle;rounded=0;orthogonalLoop=1;jettySize=auto;html=1;entryX=0.5;entryY=1;entryDx=0;entryDy=0;" edge="1" parent="_vKOgibNYJb6RkX7hGH7-1" source="BnMmAX0TkKGdTF5xidC1-89" target="BnMmAX0TkKGdTF5xidC1-91">
          <mxGeometry relative="1" as="geometry" />
        </mxCell>
        <mxCell id="BnMmAX0TkKGdTF5xidC1-89" value="Backend&lt;div&gt;&lt;br&gt;&lt;/div&gt;" style="shape=umlActor;verticalLabelPosition=bottom;verticalAlign=top;html=1;fontFamily=Helvetica;fontSize=12;align=center;strokeColor=#d6b656;strokeWidth=1;fillColor=#fff2cc;" vertex="1" parent="_vKOgibNYJb6RkX7hGH7-1">
          <mxGeometry x="1090" y="850" width="30" height="60" as="geometry" />
        </mxCell>
        <mxCell id="BnMmAX0TkKGdTF5xidC1-91" value="mapping confirmation to wallet" style="ellipse;whiteSpace=wrap;html=1;rounded=1;strokeWidth=1;fontSize=12;fillColor=#fff2cc;strokeColor=#d6b656;" vertex="1" parent="_vKOgibNYJb6RkX7hGH7-1">
          <mxGeometry x="1110" y="730" width="130" height="50" as="geometry" />
        </mxCell>
        <mxCell id="BnMmAX0TkKGdTF5xidC1-97" style="edgeStyle=orthogonalEdgeStyle;rounded=0;orthogonalLoop=1;jettySize=auto;html=1;" edge="1" parent="_vKOgibNYJb6RkX7hGH7-1" source="BnMmAX0TkKGdTF5xidC1-95" target="BnMmAX0TkKGdTF5xidC1-96">
          <mxGeometry relative="1" as="geometry" />
        </mxCell>
        <mxCell id="BnMmAX0TkKGdTF5xidC1-95" value="Blockchain" style="shape=umlActor;verticalLabelPosition=bottom;verticalAlign=top;html=1;outlineConnect=0;rounded=1;strokeWidth=1;fillColor=#e1d5e7;strokeColor=#9673a6;" vertex="1" parent="_vKOgibNYJb6RkX7hGH7-1">
          <mxGeometry x="1015" y="380" width="30" height="60" as="geometry" />
        </mxCell>
        <mxCell id="BnMmAX0TkKGdTF5xidC1-96" value="Perform payment" style="ellipse;whiteSpace=wrap;html=1;fillColor=#e1d5e7;strokeColor=#9673a6;" vertex="1" parent="_vKOgibNYJb6RkX7hGH7-1">
          <mxGeometry x="970" y="515" width="120" height="50" as="geometry" />
        </mxCell>
        <mxCell id="BnMmAX0TkKGdTF5xidC1-100" style="edgeStyle=orthogonalEdgeStyle;rounded=0;orthogonalLoop=1;jettySize=auto;html=1;entryX=1.017;entryY=0.66;entryDx=0;entryDy=0;entryPerimeter=0;" edge="1" parent="_vKOgibNYJb6RkX7hGH7-1" source="BnMmAX0TkKGdTF5xidC1-56" target="BnMmAX0TkKGdTF5xidC1-86">
          <mxGeometry relative="1" as="geometry" />
        </mxCell>
        <mxCell id="BnMmAX0TkKGdTF5xidC1-104" value="approve contract to perform payment" style="ellipse;whiteSpace=wrap;html=1;fillColor=#dae8fc;strokeColor=#6c8ebf;" vertex="1" parent="_vKOgibNYJb6RkX7hGH7-1">
          <mxGeometry x="1160" y="520" width="120" height="50" as="geometry" />
        </mxCell>
      </root>
    </mxGraphModel>
  </diagram>
</mxfile>
